/* XPM */
static char *AAAAA_xpm[]={
"32 32 184 2",
"      c #A9A9A9",
" 0    c #D5D5D5",
" 1    c #C1C1C1",
" 2    c #747474",
" 3    c #555555",
" 4    c #4C4C4C",
" 5    c #656565",
" 6    c #B3B3B3",
" 7    c #CFCFCF",
" 8    c #919191",
" 9    c #CCCCCC",
" a    c #B0B0B0",
" b    c #575757",
" c    c #C1B5D1",
" d    c #F1E6FB",
" e    c #827D84",
" f    c #BEBEBE",
" g    c #D2D2D2",
" h    c #717171",
" i    c #525252",
" j    c #9C909F",
" k    c #FBF8FF",
" l    c #545454",
" m    c #626262",
" n    c #CACACA",
" o    c #777777",
" p    c #5A3864",
" q    c #A955C1",
" r    c #EED1FF",
" s    c #B532DA",
" t    c #6F2285",
" u    c #6E6E6E",
" v    c #BBBBBB",
" w    c #4F4F4F",
" x    c #761F8D",
" y    c #9A00C4",
" z    c #B31FDC",
" A    c #EDBEFF",
" B    c #CF6CEF",
" C    c #A700D6",
" D    c #870FA8",
" E    c #563E5C",
" F    c #5F5F5F",
" G    c #8B0BAF",
" H    c #DA8EF5",
" I    c #BA2DE2",
" J    c #A7A7A7",
" K    c #494949",
" L    c #CA7AE1",
" M    c #A600D4",
" N    c #D57CF3",
" O    c #9300B7",
" P    c #662376",
" Q    c #A2A2A2",
" R    c #E8E8E8",
" S    c #E0C9E6",
" T    c #B22FD7",
" U    c #9400BE",
" V    c #8700A3",
" W    c #7F0292",
" X    c #60286C",
" Y    c #908F8F",
" Z    c #5A5959",
" &    c #4E4D4D",
"0     c #C364E7",
"00    c #F4E4FF",
"01    c #9814B8",
"02    c #8D8C8C",
"03    c #7A7A7A",
"04    c #CECECE",
"05    c #737272",
"06    c #959595",
"07    c #BB5DE9",
"08    c #8C00CF",
"09    c #D696FD",
"0a    c #EDDEF7",
"0b    c #B5B2BA",
"0c    c #822E95",
"0d    c #706F6F",
"0e    c #D1D1D1",
"0f    c #D6D6D6",
"0g    c #717070",
"0h    c #979696",
"0i    c #7D00BC",
"0j    c #A91AF0",
"0k    c #EED0FF",
"0l    c #D1C9D9",
"0m    c #696868",
"0n    c #D0D0D0",
"0o    c #999898",
"0p    c #AE89BE",
"0q    c #7D0E91",
"0r    c #90559B",
"0s    c #787878",
"0t    c #757474",
"0u    c #656464",
"0v    c #C8C8C8",
"0w    c #8D8D8D",
"0x    c #3A3939",
"0y    c #6E6D6D",
"0z    c #835799",
"0A    c #A471B7",
"0B    c #8F409A",
"0C    c #A490A5",
"0D    c #5D5C5C",
"0E    c #C3C3C3",
"0F    c #B7B7B7",
"0G    c #444343",
"0H    c #595858",
"0I    c #6C6C6C",
"0J    c #9223CB",
"0K    c #9C88A1",
"0L    c #9E7DA2",
"0M    c #959494",
"0N    c #7D7D7D",
"0O    c #B7B6B6",
"0P    c #D1A2E8",
"0Q    c #9400DD",
"0R    c #A39CA4",
"0S    c #818181",
"0T    c #888888",
"0U    c #9058AA",
"0V    c #C170E7",
"0W    c #995AB0",
"0X    c #801893",
"0Y    c #A1A1A1",
"0Z    c #616161",
"0&    c #A5A5A5",
"1     c #868686",
"10    c #989797",
"11    c #4F4E4E",
"12    c #983CA7",
"13    c #898989",
"14    c #C4C4C4",
"15    c #CBCBCB",
"16    c #ACACAC",
"17    c #866499",
"18    c #97779B",
"19    c #676767",
"1a    c #B5B5B5",
"1b    c #C5C5C5",
"1c    c #646363",
"1d    c #565656",
"1e    c #999999",
"1f    c #DEDEDE",
"1g    c #642272",
"1h    c #4D494F",
"1i    c #6B6B6B",
"1j    c #A4A4A4",
"1k    c #B9B9B9",
"1l    c #BDBDBD",
"1m    c #BCBBBB",
"1n    c #878787",
"1o    c #595959",
"1p    c #721184",
"1q    c #53395A",
"1r    c #5C5C5C",
"1s    c #ADADAD",
"1t    c #B6B6B6",
"1u    c #636363",
"1v    c #504F4F",
"1w    c #4D4C4C",
"1x    c #525151",
"1y    c #686868",
"1z    c #694B71",
"1A    c #6A6A6A",
"1B    c #646464",
"1C    c #3A3A3A",
"1D    c #727272",
"1E    c #949494",
"1F    c #E2E2E2",
"1G    c #C0C0C0",
"1H    c #505050",
"1I    c #9F9F9F",
"1J    c #515151",
"1K    c #606060",
"1L    c #454545",
"1M    c #585858",
"1N    c #6F6F6F",
"1O    c #414141",
"1P    c #D7D7D7",
"1Q    c #3E3E3E",
"1R    c #AAAAAA",
"1S    c #535353",
"                                                                ",
"                                                                ",
"     0 0 0 0 0 0 0 0 0 0 1 2 3 4 5 6 7 0 0 0 0 0 0 0 0 0 0 0    ",
" 8 8 0 0 0 0 0 0 0 0 9 a 5 b c d e 3 2 f 0 0 0 0 0 0 0 0 0 0 8 8",
" 8 8 0 0 0 0 0 0 g f h i j d k k k c l m a n 0 0 0 0 0 0 0 0 8 8",
" 8 8 0 0 0 0 0 n o m p q k k k k k r s t i u v g 0 0 0 0 0 0 8 8",
" 8 8 0 0 0 0 f u w x y y z A k k B C y y D E F o n 0 0 0 0 0 8 8",
" 8 8 0 0 0 f m p G y y y y y H I y y y y y y x w u n 0 0 0 0 8 8",
" 8 8 0 0 0 J K L M y y y C N k r I y y y y y O P K J 0 0 0 0 8 8",
" 8 8 0 0 0 Q K R S T y I r k k k k N C y U V W X K J 0 0 0 0 8 8",
" 8 8 0 0 Y Z & R R R0 00 k k k k k k r01 W W W X K J 0 0 0 0 8 8",
" 8 8 00203040506 R R070809 k k k k0a0b0c W W W X K J 0 0 0 0 8 8",
" 8 8 Y0d0e0f0e0g0h R070i0i0j0k k0l J J0c W W W X K J 0 0 0 0 8 8",
" 8050m040f0f0f0n0d0o070i0i0i080p J J J0c W0q0r0s K J 0 0 0 0 8 8",
"0t0u0v0w0x0x0s0f040y0z0i0i0i0i0A J J J0c0B0C J0s K J 0 0 0 0 8 8",
"0D0E0F0G 9 90H 10f040I0J0i0i0i0A J J0K0L J J J0s K J 0 0 0 0 8 8",
"050M 90G0y0F0f0f0f J0N0O0P0Q0i0A0R0r W0L J J J0s K J 0 0 0 0 8 8",
"0S0m0f0F0H0x0y0f0f0T0U R R R0V0W0X W W0L J J0Y0Z K0&0e0e0e0e 8 8",
"1 0m0f0f0f10110w0f0T0U R R R R12 W W W0L J13 i 5 Q1415151515 8 8",
"1 0m160H 10f0y0w0f0T17 R R R R12 W W W1819 3 21a1b1b1b1b1b1b 8 8",
"1 0m0f0s0x0x1c0f0f0T1d1e1f R R12 W W1g1h1i1j1k1l1l1l1l1l1l1l 8 8",
"0T0u1m1m1m1m1m1m1m0N1n1i1o16 R121p1q1r o1s1t1t1t1t1t1t1t1t1t 8 8",
"1u1o1v1w1w &1x1v1w 41u19 o F1y1z w u1A1B1u1u K1C K1u1u1u1u1u1u1u",
"1D l1E1F1F1G1H1H1F1C1D1D1D1D1D u1D1D1D1D1D1D1C1F1H1i1D1D1D1D1D1D",
"1r0N 91r1C0T1I1H1F1C1C1H191J1C1C1J1D1J1C1C1J1C1F1H l K1K K1C1C1J",
"1L1G0T1M1N1M1H1H1F1F1F1I1H0N1F1F19 3191F1F1r1C1F1H1E1a K1a1F1F19",
"1O 9191u1D1D1i1H1F191r1F1C1P190N1G1Q1P0T1H1R1C1F0T1G1L K1a1a1C1J",
"1L1G0N1o1N1M1H1H1F1C1H1F1H1F1F1F1F1H1F1H1B1r1C1F1F1D1o K1a0T1M1D",
"1r0N 91r1C0T1I1H1F1C1H1F1C1P0N1C1C1Q1P0T1C K1C1F0N 91H K1a0T1M1D",
"1D l1E1F1F1G1L1H1F1C1H1F1C191P1F1F1C191P1F1a1C1F1H19 91H1a0T1M1D",
"1D1i1J1C1C1L1r1J1C1J1J1C1J 31Q1C1C1J 31Q1C K1J1C1J1o1O1o K1M1N1D",
"1S1S1S1S1S1S1S1S1S1S1S1S1S1S1S1S1S1S1S1S1S1S1S1S1S1S1S1S1S1S1S1S"};
